<?xml version="1.0" encoding="iso-8859-1"?>
<!-- Generator: Adobe Illustrator 19.0.0, SVG Export Plug-In . SVG Version: 6.00 Build 0)  -->
<svg xmlns="http://www.w3.org/2000/svg" xmlns:xlink="http://www.w3.org/1999/xlink" version="1.1" id="Capa_1" x="0px" y="0px" viewBox="0 0 490.667 490.667" style="enable-background:new 0 0 490.667 490.667;" xml:space="preserve" width="512px" height="512px">
<g>
	<g>
		<path d="M480,213.333c5.888,0,10.667-4.779,10.667-10.667v-85.333c0-5.888-4.779-10.667-10.667-10.667H10.667    C4.779,106.667,0,111.445,0,117.333v85.333c0,5.888,4.779,10.667,10.667,10.667c17.643,0,32,14.357,32,32    c0,17.643-14.357,32-32,32C4.779,277.333,0,282.112,0,288v85.333C0,379.221,4.779,384,10.667,384H480    c5.888,0,10.667-4.779,10.667-10.667V288c0-5.888-4.779-10.667-10.667-10.667c-17.643,0-32-14.357-32-32    C448,227.691,462.357,213.333,480,213.333z M373.333,298.667h-256c-5.888,0-10.667-4.779-10.667-10.667    s4.779-10.667,10.667-10.667h256c5.888,0,10.667,4.779,10.667,10.667S379.221,298.667,373.333,298.667z M373.333,256h-256    c-5.888,0-10.667-4.779-10.667-10.667s4.779-10.667,10.667-10.667h256c5.888,0,10.667,4.779,10.667,10.667    S379.221,256,373.333,256z M373.333,213.333h-256c-5.888,0-10.667-4.779-10.667-10.667S111.445,192,117.333,192h256    c5.888,0,10.667,4.779,10.667,10.667S379.221,213.333,373.333,213.333z" fill="#FFFFFF"/>
	</g>
</g>
<g>
</g>
<g>
</g>
<g>
</g>
<g>
</g>
<g>
</g>
<g>
</g>
<g>
</g>
<g>
</g>
<g>
</g>
<g>
</g>
<g>
</g>
<g>
</g>
<g>
</g>
<g>
</g>
<g>
</g>
</svg>
